<?xml version="1.0" encoding="utf-8"?>
<!-- Generator: Adobe Illustrator 24.3.0, SVG Export Plug-In . SVG Version: 6.00 Build 0)  -->
<svg version="1.1" id="Layer_1" xmlns="http://www.w3.org/2000/svg" xmlns:xlink="http://www.w3.org/1999/xlink" x="0px" y="0px"
	 viewBox="0 0 512 512" style="enable-background:new 0 0 512 512;" xml:space="preserve">
<path d="M437,0H75C33.6,0,0,33.6,0,75v362c0,41.4,33.6,75,75,75h167V330h-60v-60h60v-75c0-41.3,33.6-75,75-75h75v60h-60
	c-16.5,0-30,13.5-30,30v60h87.3l-10,60H302v182h135c41.4,0,75-33.6,75-75V75C512,33.6,478.4,0,437,0z M482,437c0,24.8-20.2,45-45,45
	H332V360h72.7l20-120H332v-30h90V90H317c-57.9,0-105,47.1-105,105v45h-60v120h60v122H75c-24.8,0-45-20.2-45-45V75
	c0-24.8,20.2-45,45-45h362c24.8,0,45,20.2,45,45V437z"/>
<path d="M482,75v362c0,24.8-20.2,45-45,45H332V360h72.7l20-120H332v-30h90V90H317c-57.9,0-105,47.1-105,105v45h-60v120h60v122H75
	c-24.8,0-45-20.2-45-45V75c0-24.8,20.2-45,45-45h362C461.8,30,482,50.2,482,75z"/>
</svg>
