<?xml version="1.0" encoding="utf-8"?>
<!-- Generator: Adobe Illustrator 24.3.0, SVG Export Plug-In . SVG Version: 6.00 Build 0)  -->
<svg version="1.1" id="Layer_1" xmlns="http://www.w3.org/2000/svg" xmlns:xlink="http://www.w3.org/1999/xlink" x="0px" y="0px"
	 viewBox="0 0 512 512" style="enable-background:new 0 0 512 512;" xml:space="preserve">
<path d="M437,0H75C33.6,0,0,33.6,0,75v362c0,41.4,33.6,75,75,75h362c41.4,0,75-33.6,75-75V75C512,33.6,478.4,0,437,0z M482,437
	c0,24.8-20.2,45-45,45H75c-24.8,0-45-20.2-45-45V75c0-24.8,20.2-45,45-45h362c24.8,0,45,20.2,45,45V437z"/>
<path d="M437,30H75c-24.8,0-45,20.2-45,45v362c0,24.8,20.2,45,45,45h362c24.8,0,45-20.2,45-45V75C482,50.2,461.8,30,437,30z
	 M256,391c-74.4,0-135-60.6-135-135c0-74.4,60.6-135,135-135s135,60.6,135,135C391,330.4,330.4,391,256,391z M406,151
	c-24.8,0-45-20.2-45-45c0-24.8,20.2-45,45-45s45,20.2,45,45C451,130.8,430.8,151,406,151z"/>
<path d="M256,121c-74.4,0-135,60.6-135,135c0,74.4,60.6,135,135,135s135-60.6,135-135C391,181.6,330.4,121,256,121z M256,361
	c-57.9,0-105-47.1-105-105c0-57.9,47.1-105,105-105s105,47.1,105,105C361,313.9,313.9,361,256,361z"/>
<path d="M406,61c-24.8,0-45,20.2-45,45c0,24.8,20.2,45,45,45s45-20.2,45-45C451,81.2,430.8,61,406,61z M406,121c-8.3,0-15-6.7-15-15
	c0-8.3,6.7-15,15-15s15,6.7,15,15C421,114.3,414.3,121,406,121z"/>
</svg>
